{
  "title": "Fantastic Four 2015 720P HDTS x264 AC3 HQ Hive-CM8",
  "uid": 12213728,
  "size": 2294369408,
  "categoryP": "video",
  "categoryS": "movies",
  "magnet": "?xt=urn:btih:1d362b110653d67897f5f954975250b18064d7ff&amp;dn=Fantastic+Four+2015+720P+HDTS+x264+AC3+HQ+Hive-CM8&amp;tr=udp%3A%2F%2Ftracker.openbittorrent.com%3A80&amp;tr=udp%3A%2F%2Fopen.demonii.com%3A1337&amp;tr=udp%3A%2F%2Ftracker.coppersurfer.tk%3A6969&amp;tr=udp%3A%2F%2Fexodus.desync.com%3A6969",
  "seeders": 182,
  "leechers": 57,
  "uploader": "SS132203",
  "files": 4,
  "time": 1439188650,
  "description": "Fantastic Four 2015 720P HDTS x264 AC3 HQ Hive-CM8\n &lt;a href=&quot;\nhttp://imgsparrow.co/image/8Ev&quot; rel=&quot;nofollow&quot; target=&quot;_NEW&quot;&gt;\nhttp://imgsparrow.co/image/8Ev&lt;/a&gt;\n &lt;a href=&quot;\nhttp://imgsparrow.co/image/9b&quot; rel=&quot;nofollow&quot; target=&quot;_NEW&quot;&gt;\nhttp://imgsparrow.co/image/9b&lt;/a&gt;\n\nInfo : - \n\nThank CM8 Not ME!\n\nPlease Support The Filmmakers\nDon't Just Download Go Watch In Theater Also\n\nThx Hive\n\nCM8 Doing It Right The First Time\n\nSources:\n\nVideo: 720P Latino HDCAM\n\nAudio: Sweet Line Big Thx to S4NDM4N\n\n\nNotes:\n\nhere is another great quality cam, no movement, no autofocus problems, no flicker, all bright\nperfect as is should be.\ndone both avi and 720p from source whatever you prefer\n\nEncode:\n\nvideo was perfect, needed a bit rotating and fixing perspective, otherwise not much to do, it was already very bright\ncolours were good, fixed gamma relation to contrast, added sharpness and removed some noise in the video.\n\nAudio Sweet Line from S4NDM4N, lipsynced to my videos\n\nwill do me till retail\nenjoy\n\nVideo: 1280x528 @bitrate 3000-8000\nAudio: English AC3 2.0 Stereo\nSample: yes included\n\nPS: Still need Line for Pixels anyone?\n\n\n &lt;a href=&quot;\nhttp://www.imdb.com/title/tt1502712/&quot; rel=&quot;nofollow&quot; target=&quot;_NEW&quot;&gt;\nhttp://www.imdb.com/title/tt1502712/&lt;/a&gt;\n\n\nGeneral\nComplete name                  : Fantastic.Four.2015.720P.HDTS.x264.AC3.HQ.Hive-CM8.mkv\nFormat                         : Matroska\nFormat version                 : Version 2\nFile size                      : 2.10 GiB\nDuration                       : 1h 32mn\nOverall bit rate mode          : Variable\nOverall bit rate               : 3 254 Kbps\nEncoded date                   : UTC 2015-08-09 21:41:53\nWriting application            : mkvmerge v5.6.0 ('Kenya Kane') built on May 27 2012 16:44:04\nWriting library                : libebml v1.2.3 + libmatroska v1.3.0\n\nVideo\nID                             : 1\nFormat                         : AVC\nFormat/Info                    : Advanced Video Codec\nFormat profile                 : &lt;a class=&quot;__cf_email__&quot; href=&quot;/cdn-cgi/l/email-protection&quot; data-cfemail=&quot;abe3c2ccc3ebe798859a&quot;&gt;[email&amp;#160;protected]&lt;/a&gt;&lt;script data-cfhash='f9e31' type=&quot;text/javascript&quot;&gt;\n/* &lt;![CDATA[ */!function(){try{var t=&quot;currentScript&quot;in document?document.currentScript:function(){for(var t=document.getElementsByTagName(&quot;script&quot;),e=t.length;e--;)if(t[e].getAttribute(&quot;data-cfhash&quot;))return t[e]}();if(t&amp;&amp;t.previousSibling){var e,r,n,i,c=t.previousSibling,a=c.getAttribute(&quot;data-cfemail&quot;);if(a){for(e=&quot;&quot;,r=parseInt(a.substr(0,2),16),n=2;a.length-n;n+=2)i=parseInt(a.substr(n,2),16)^r,e+=String.fromCharCode(i);e=document.createTextNode(e),c.parentNode.replaceChild(e,c)}t.parentNode.removeChild(t);}}catch(u){}}()/* ]]&gt; */&lt;/script&gt;\nFormat settings, CABAC         : Yes\nFormat settings, ReFrames      : 2 frames\nMuxing mode                    : Header stripping\nCodec ID                       : V_MPEG4/ISO/AVC\nDuration                       : 1h 32mn\nBit rate mode                  : Variable\nBit rate                       : 2 933 Kbps\nMaximum bit rate               : 8 000 Kbps\nWidth                          : 1 280 pixels\nHeight                         : 528 pixels\nDisplay aspect ratio           : 2.40:1\nFrame rate                     : 29.970 fps\nStandard                       : NTSC\nColor space                    : YUV\nChroma subsampling             : 4:2:0\nBit depth                      : 8 bits\nScan type                      : Progressive\nBits/(Pixel*Frame)             : 0.145\nStream size                    : 1.90 GiB (90%)\nLanguage                       : English\nDefault                        : Yes\nForced                         : No\nColor primaries                : BT.709-5, BT.1361, IEC 61966-2-4, SMPTE RP177\nTransfer characteristics       : BT.709-5, BT.1361\nMatrix coefficients            : BT.709-5, BT.1361, IEC 61966-2-4 709, SMPTE RP177\n\nAudio\nID                             : 2\nFormat                         : AC-3\nFormat/Info                    : Audio Coding 3\nMode extension                 : CM (complete main)\nFormat settings, Endianness    : Big\nMuxing mode                    : Header stripping\nCodec ID                       : A_AC3\nDuration                       : 1h 32mn\nBit rate mode                  : Constant\nBit rate                       : 256 Kbps\nChannel(s)                     : 2 channels\nChannel positions              : Front: L R\nSampling rate                  : 48.0 KHz\nBit depth                      : 16 bits\nCompression mode               : Lossy\nStream size                    : 169 MiB (8%)\nLanguage                       : English\nDefault                        : Yes\nForced                         : No\n\nScreens : - \n &lt;a href=&quot;\nhttp://imgsparrow.co/image/8U4&quot; rel=&quot;nofollow&quot; target=&quot;_NEW&quot;&gt;\nhttp://imgsparrow.co/image/8U4&lt;/a&gt; &lt;a href=&quot;\nhttp://imgsparrow.co/image/8UH&quot; rel=&quot;nofollow&quot; target=&quot;_NEW&quot;&gt;\nhttp://imgsparrow.co/image/8UH&lt;/a&gt; &lt;a href=&quot;\nhttp://imgsparrow.co/image/8UT&quot; rel=&quot;nofollow&quot; target=&quot;_NEW&quot;&gt;\nhttp://imgsparrow.co/image/8UT&lt;/a&gt; &lt;a href=&quot;\nhttp://imgsparrow.co/image/8Ub&quot; rel=&quot;nofollow&quot; target=&quot;_NEW&quot;&gt;\nhttp://imgsparrow.co/image/8Ub&lt;/a&gt; &lt;a href=&quot;\nhttp://imgsparrow.co/image/8Uh&quot; rel=&quot;nofollow&quot; target=&quot;_NEW&quot;&gt;\nhttp://imgsparrow.co/image/8Uh&lt;/a&gt; &lt;a href=&quot;\nhttp://imgsparrow.co/image/8Uj&quot; rel=&quot;nofollow&quot; target=&quot;_NEW&quot;&gt;\nhttp://imgsparrow.co/image/8Uj&lt;/a&gt; &lt;a href=&quot;\nhttp://imgsparrow.co/image/8Ur&quot; rel=&quot;nofollow&quot; target=&quot;_NEW&quot;&gt;\nhttp://imgsparrow.co/image/8Ur&lt;/a&gt;\n &lt;a href=&quot;\nhttp://imgsparrow.co/image/N2&quot; rel=&quot;nofollow&quot; target=&quot;_NEW&quot;&gt;\nhttp://imgsparrow.co/image/N2&lt;/a&gt;",
  "parsed": {
    "xt": "urn:btih:1d362b110653d67897f5f954975250b18064d7ff",
    "dn": "Fantastic Four 2015 720P HDTS x264 AC3 HQ Hive-CM8",
    "tr": [
      "udp://exodus.desync.com:6969",
      "udp://open.demonii.com:1337",
      "udp://tracker.coppersurfer.tk:6969",
      "udp://tracker.openbittorrent.com:80"
    ],
    "infoHash": "1d362b110653d67897f5f954975250b18064d7ff",
    "infoHashBuffer": {
      "type": "Buffer",
      "data": [
        29,
        54,
        43,
        17,
        6,
        83,
        214,
        120,
        151,
        245,
        249,
        84,
        151,
        82,
        80,
        177,
        128,
        100,
        215,
        255
      ]
    },
    "name": "Fantastic Four 2015 720P HDTS x264 AC3 HQ Hive-CM8",
    "announce": [
      "udp://exodus.desync.com:6969",
      "udp://open.demonii.com:1337",
      "udp://tracker.coppersurfer.tk:6969",
      "udp://tracker.openbittorrent.com:80"
    ],
    "urlList": []
  },
  "previous": 239,
  "peers": 15,
  "last_updated": "2016-12-24T18:58:33.030Z"
}